<svg width="150" height="150" xmlns="http://www.w3.org/2000/svg" clip-rule="evenodd" stroke-miterlimit="2" stroke-linejoin="round" fill-rule="evenodd" xml:space="preserve">

 <g>
  <title>Layer 1</title>
  <path id="svg_2" d="m100,150l-50,-28.87l0,-25l50,28.87l50,-28.87l0,25l-50,28.87zm-75,-50l28.868,50l-25,0l-28.868,-50l28.868,-50l25,0l-28.868,50zm71.133,-100l25,0l28.867,50l-28.867,50l-25,0l28.867,-50l-28.867,-50zm-46.133,0.001l50,28.87l0,25l-50,-28.87l-50,28.87l0,-25l50,-28.871l0,0.001z"/>
 </g>
</svg>